<svg xmlns="http://www.w3.org/2000/svg" width="410" height="502" viewBox="0 0 410 502">
  <path d="M 410.00 251.00 L 409.95 300.56 L 409.81 319.60 L 409.57 333.95 L 409.23 345.90 L 408.80 356.30 L 408.27 365.61 L 407.64 374.09 L 406.92 381.90 L 406.10 389.16 L 405.18 395.95 L 404.16 402.33 L 403.04 408.36 L 401.82 414.06 L 400.50 419.48 L 399.08 424.62 L 397.55 429.53 L 395.92 434.20 L 394.18 438.66 L 392.34 442.91 L 390.38 446.98 L 388.32 450.86 L 386.14 454.57 L 383.84 458.11 L 381.43 461.48 L 378.89 464.70 L 376.23 467.77 L 373.44 470.69 L 370.52 473.46 L 367.45 476.10 L 364.25 478.59 L 360.89 480.95 L 357.37 483.18 L 353.69 485.27 L 349.82 487.24 L 345.77 489.07 L 341.52 490.79 L 337.04 492.37 L 332.31 493.83 L 327.32 495.17 L 322.03 496.39 L 316.40 497.49 L 310.36 498.46 L 303.86 499.32 L 296.78 500.05 L 288.97 500.67 L 280.20 501.17 L 270.05 501.56 L 257.63 501.82 L 240.36 501.97 L 183.89 502.00 L 160.06 501.91 L 145.79 501.70 L 134.66 501.38 L 125.27 500.94 L 117.02 500.38 L 109.60 499.70 L 102.83 498.90 L 96.57 497.99 L 90.74 496.95 L 85.28 495.80 L 80.15 494.52 L 75.29 493.12 L 70.70 491.59 L 66.33 489.95 L 62.18 488.17 L 58.22 486.27 L 54.45 484.24 L 50.85 482.08 L 47.41 479.79 L 44.13 477.36 L 41.00 474.80 L 38.00 472.10 L 35.15 469.25 L 32.42 466.26 L 29.82 463.11 L 27.35 459.81 L 24.99 456.36 L 22.76 452.74 L 20.63 448.94 L 18.62 444.97 L 16.73 440.81 L 14.93 436.45 L 13.25 431.89 L 11.67 427.10 L 10.20 422.08 L 8.83 416.80 L 7.56 411.25 L 6.39 405.39 L 5.32 399.19 L 4.35 392.61 L 3.48 385.59 L 2.71 378.07 L 2.03 369.95 L 1.45 361.08 L 0.97 351.26 L 0.59 340.16 L 0.30 327.16 L 0.11 310.94 L 0.01 286.79 L 0.01 215.21 L 0.11 191.06 L 0.30 174.84 L 0.59 161.84 L 0.97 150.74 L 1.45 140.92 L 2.03 132.05 L 2.71 123.93 L 3.48 116.41 L 4.35 109.39 L 5.32 102.81 L 6.39 96.61 L 7.56 90.75 L 8.83 85.20 L 10.20 79.92 L 11.67 74.90 L 13.25 70.11 L 14.93 65.55 L 16.73 61.19 L 18.62 57.03 L 20.63 53.06 L 22.76 49.26 L 24.99 45.64 L 27.35 42.19 L 29.82 38.89 L 32.42 35.74 L 35.15 32.75 L 38.00 29.90 L 41.00 27.20 L 44.13 24.64 L 47.41 22.21 L 50.85 19.92 L 54.45 17.76 L 58.22 15.73 L 62.18 13.83 L 66.33 12.05 L 70.70 10.41 L 75.29 8.88 L 80.15 7.48 L 85.28 6.20 L 90.74 5.05 L 96.57 4.01 L 102.83 3.10 L 109.60 2.30 L 117.02 1.62 L 125.27 1.06 L 134.66 0.62 L 145.79 0.30 L 160.06 0.09 L 183.89 0.00 L 240.36 0.03 L 257.63 0.18 L 270.05 0.44 L 280.20 0.83 L 288.97 1.33 L 296.78 1.95 L 303.86 2.68 L 310.36 3.54 L 316.40 4.51 L 322.03 5.61 L 327.32 6.83 L 332.31 8.17 L 337.04 9.63 L 341.52 11.21 L 345.77 12.93 L 349.82 14.76 L 353.69 16.73 L 357.37 18.82 L 360.89 21.05 L 364.25 23.41 L 367.45 25.90 L 370.52 28.54 L 373.44 31.31 L 376.23 34.23 L 378.89 37.30 L 381.43 40.52 L 383.84 43.89 L 386.14 47.43 L 388.32 51.14 L 390.38 55.02 L 392.34 59.09 L 394.18 63.34 L 395.92 67.80 L 397.55 72.47 L 399.08 77.38 L 400.50 82.52 L 401.82 87.94 L 403.04 93.64 L 404.16 99.67 L 405.18 106.05 L 406.10 112.84 L 406.92 120.10 L 407.64 127.91 L 408.27 136.39 L 408.80 145.70 L 409.23 156.10 L 409.57 168.05 L 409.81 182.40 L 409.95 201.44 L 410.00 251.00 Z" fill="black"/>
</svg>